<svg width="15" height="12" viewBox="0 0 15 12" fill="none" xmlns="http://www.w3.org/2000/svg">
<path d="M4.80078 1.19995H14.4008M4.80078 5.99755H10.8008M4.80078 10.8H14.4008" stroke="black" stroke-linecap="round" stroke-linejoin="round"/>
<path fill-rule="evenodd" clip-rule="evenodd" d="M1.1988 2.4C1.7988 2.4 2.3988 1.8 2.3988 1.2C2.3988 0.6 1.7988 0 1.1988 0C0.5988 0 0 0.6 0 1.2C0 1.8 0.5988 2.4 1.1988 2.4ZM1.1988 7.2C1.7988 7.2 2.3988 6.6 2.3988 6C2.3988 5.4 1.7988 4.8 1.1988 4.8C0.5988 4.8 0 5.4 0 6C0 6.6 0.5988 7.2 1.1988 7.2ZM1.1988 12C1.7988 12 2.3988 11.4 2.3988 10.8C2.3988 10.2 1.7988 9.6 1.1988 9.6C0.5988 9.6 0 10.2 0 10.8C0 11.4 0.5988 12 1.1988 12Z" fill="black"/>
</svg>
